<?xml version="1.0" encoding="utf-8"?>
<!-- Generator: Adobe Illustrator 19.1.0, SVG Export Plug-In . SVG Version: 6.00 Build 0)  -->
<!DOCTYPE svg PUBLIC "-//W3C//DTD SVG 1.1//EN" "http://www.w3.org/Graphics/SVG/1.1/DTD/svg11.dtd">
<svg version="1.1" id="Layer_1" xmlns="http://www.w3.org/2000/svg" xmlns:xlink="http://www.w3.org/1999/xlink" x="0px" y="0px"
	 viewBox="0 0 1042 419.1" enable-background="new 0 0 1042 419.1" xml:space="preserve">
<g>
	<path fill="none" d="M547.8,82.3c-43.8,0-79.2,35.7-79.1,79.7c0.1,43.6,35.7,79,79.1,79.4c39.2,0.4,79.9-32.9,79.2-79.6
		C626.4,117.3,592,82.3,547.8,82.3z M548,99.3c7.4,0.1,13.1,6,13.1,13.5c0,7.4-5.8,13.4-13.2,13.6c-7.5,0.1-13.7-6.1-13.7-13.6
		C534.2,105.2,540.4,99.2,548,99.3z M573.7,177.5c-3.9,0-7.1,0-10.8,0c0,15.6,0,31,0,46.7c-10.2,0-19.8,0-30,0c0-15.3,0-30.7,0-46.5
		c-3.9,0-7.1,0-11.2,0c0-4.3,0-8.3,0-12.2c0-8.7,0-17.3,0-26c0-5.7,2.1-8,7.7-8c12.2-0.1,24.3,0,36.5,0c4.2,0,7.6,1.7,7.7,6.1
		C573.9,150.7,573.7,163.8,573.7,177.5z"/>
	<path fill="none" d="M768.6,336.7c-1.8-1.2-3.7-2.1-5.5-2.6c-1.8-0.5-3.3-0.9-4.3-1.1c-3.5-0.9-6.3-1.6-8.5-2.2
		c-2.2-0.6-3.8-1.1-5.1-1.7c-1.2-0.6-2-1.2-2.5-1.9c-0.4-0.7-0.6-1.6-0.6-2.7c0-1.2,0.3-2.2,0.8-3c0.5-0.8,1.2-1.4,2-1.9
		c0.8-0.5,1.7-0.9,2.7-1.1c1-0.2,2-0.3,3-0.3c1.5,0,2.9,0.1,4.2,0.4c1.3,0.3,2.4,0.7,3.4,1.3c1,0.6,1.8,1.5,2.4,2.6
		c0.6,1.1,0.9,2.5,1.1,4.1h11.9c0-3.2-0.6-6-1.8-8.2c-1.2-2.3-2.9-4.1-5-5.6c-2.1-1.5-4.5-2.5-7.1-3.2c-2.7-0.6-5.5-1-8.4-1
		c-2.5,0-5,0.3-7.5,1c-2.5,0.7-4.7,1.7-6.7,3.1c-2,1.4-3.6,3.2-4.8,5.3c-1.2,2.1-1.8,4.6-1.8,7.4c0,2.5,0.5,4.7,1.4,6.5
		s2.2,3.3,3.8,4.5c1.6,1.2,3.3,2.2,5.3,2.9c2,0.8,4,1.4,6.1,1.9c2,0.6,4,1.1,6,1.6c2,0.5,3.7,1,5.3,1.6s2.8,1.4,3.8,2.3
		c1,0.9,1.4,2.2,1.4,3.7c0,1.4-0.4,2.6-1.1,3.5c-0.7,0.9-1.6,1.6-2.7,2.1c-1.1,0.5-2.3,0.9-3.5,1.1c-1.2,0.2-2.4,0.3-3.5,0.3
		c-1.6,0-3.2-0.2-4.7-0.6c-1.5-0.4-2.8-1-3.9-1.8c-1.1-0.8-2-1.9-2.7-3.2c-0.7-1.3-1-2.9-1-4.8h-11.9c-0.1,3.4,0.6,6.4,1.9,8.9
		c1.3,2.5,3.1,4.6,5.3,6.2c2.2,1.6,4.8,2.8,7.6,3.5c2.9,0.8,5.9,1.1,8.9,1.1c3.8,0,7.1-0.4,10-1.3c2.9-0.9,5.3-2.1,7.3-3.7
		c1.9-1.6,3.4-3.5,4.4-5.7c1-2.2,1.5-4.5,1.5-7.1c0-3.1-0.7-5.7-2-7.7C772,339.5,770.4,337.9,768.6,336.7z"/>
	<path fill="none" d="M194.2,93.1C135,91.4,86.8,144.5,87,200.3c0.2,58.6,48.4,106.6,107.1,107.5c50.6,0.7,107.1-42.4,106.7-107
		C300.5,140.5,254,93.1,194.2,93.1z M144.8,210.7c0.7,6.8,5.2,11.5,12.3,12.6c7.5,1.1,13.8-1,18-7.8c0.6-1,1.2-1.9,2-3
		c5.2,2.8,10.1,5.4,15,8c-4,11.7-17.7,20.4-32.5,20.7c-26.7,0.6-43.3-20.1-39.3-48.1c4.1-28.9,32.2-40.2,56.7-29.4
		c6.7,3,11.7,8.1,15.3,15.2c-5.7,2.9-11.2,5.8-17,8.8c-3.3-6.2-7.5-10.6-14.8-10.6c-7.9,0-14,3.7-15.4,11.5
		C143.9,195.8,144,203.4,144.8,210.7z M220.4,210.7c0.7,6.8,5.2,11.5,12.3,12.6c7.5,1.1,13.8-1,18-7.8c0.6-1,1.2-1.9,2-3
		c5.2,2.8,10.1,5.4,15,8c-4,11.7-17.7,20.4-32.5,20.7c-26.7,0.6-43.3-20.1-39.3-48.1c4.1-28.9,32.2-40.2,56.7-29.4
		c6.7,3,11.7,8.1,15.3,15.2c-5.7,2.9-11.2,5.8-17,8.8c-3.3-6.2-7.5-10.6-14.8-10.6c-7.9,0-14,3.7-15.4,11.5
		C219.5,195.8,219.6,203.4,220.4,210.7z"/>
	<path fill="none" d="M801.7,310.1l-21.1,55.7h12.3l4.4-12.4h20.8l4.2,12.4h12.7l-20.8-55.7H801.7z M800.5,344.2l7.3-20.4h0.2
		l7,20.4H800.5z"/>
	<path fill="none" d="M532.8,335.5c2.5-1.2,4.4-2.7,5.7-4.6c1.3-1.9,1.9-4.2,1.9-7c0-2.6-0.4-4.8-1.3-6.6c-0.9-1.8-2.1-3.2-3.6-4.3
		c-1.6-1.1-3.4-1.8-5.6-2.3c-2.2-0.5-4.6-0.7-7.3-0.7h-26.2v55.7h27c2.5,0,4.9-0.3,7.3-0.9c2.4-0.6,4.5-1.6,6.3-2.9
		c1.8-1.3,3.3-3,4.4-5c1.1-2.1,1.6-4.5,1.6-7.3c0-3.5-0.8-6.5-2.5-8.9C538.8,338.2,536.3,336.5,532.8,335.5z M508.7,319.6h11.5
		c1.1,0,2.1,0.1,3.2,0.3c1,0.2,1.9,0.5,2.7,1c0.8,0.5,1.4,1.1,1.9,2c0.5,0.8,0.7,1.9,0.7,3.2c0,2.3-0.7,4-2.1,5.1
		c-1.4,1-3.2,1.6-5.4,1.6h-12.4V319.6z M530.1,352.5c-0.5,0.9-1.2,1.7-2,2.2c-0.8,0.5-1.8,0.9-2.9,1.2c-1.1,0.2-2.2,0.4-3.4,0.4
		h-13.1v-15.3H522c2.7,0,4.8,0.6,6.4,1.8c1.6,1.2,2.4,3.3,2.4,6.1C530.8,350.4,530.6,351.6,530.1,352.5z"/>
	<polygon fill="none" points="572.6,332.1 559.6,310.1 545.9,310.1 566.3,344.1 566.3,365.8 578.6,365.8 578.6,344.4 599.2,310.1 
		585.6,310.1 	"/>
	<path fill="none" d="M784.7,82.3c-43.6,0-79.4,35.8-79.4,79.5c-0.1,43.4,35.8,79.4,79.1,79.5c44,0.1,79.4-35.3,79.4-79.4
		C863.8,117.6,828.8,82.3,784.7,82.3z M795.8,213.8c-26.7,6.5-49.9-8-54.7-34.2c-0.1-0.6-0.2-2.2-0.2-2.2l24,0c0,0,0.1,0.9,0.3,1.4
		c2.7,10.5,6.5,14.4,15.6,15.5c11.3,1.4,19-1.8,23.5-11c6.6-13.6,6.7-27.7,0.6-41.6c-3.8-8.5-11.2-11.2-20.2-10.7
		c-8.1,0.5-14.6,3.1-17.9,11.1c-0.7,1.6-1,3.2-1.5,5.5c2.2,0.3,3.9,0.5,6,0.8c-6.5,6.1-12.6,11.9-18.8,17.6
		c-5.5-5.4-11.4-11.2-17.9-17.5c2.4-0.3,6.9-0.8,6.9-0.8s0.2-1.1,0.3-1.7c6.6-28.3,30.2-41.8,58.2-33.1
		c20.4,6.3,32.9,24.3,33.6,48.7C834.4,187.3,819.4,208.1,795.8,213.8z"/>
	<path fill="none" d="M1010.9,57.9c0-9.5-3-12.5-12.6-12.5c-318.9,0-637.9,0-956.8,0c-9.7,0-12.6,2.9-12.6,12.4
		c0,73.3,0,225.4,0,225.4l30-0.1c4.2-0.2,6.3,1.4,8.6,4.9c34.1,53,82.7,77.8,145.3,70.7c46.2-5.2,81.7-29.6,106.4-69
		c3.2-5.1,6.4-6.6,12.2-6.6c224,0.2,447.9,0.1,671.9,0.1c2.3,0,4.6,0,7.6,0c0-2.3,0-3.8,0-5.3
		C1010.9,204.5,1010.9,131.2,1010.9,57.9z M193.5,332.1c-69.4,0-130.9-61.6-130.4-132.6C63.6,133.3,119.6,67,197,68.8
		c68.5,1.5,129,58.9,127.3,132C325.8,278.7,258.4,332.2,193.5,332.1z M547.7,259.5c-53.3,0-97-44.1-97-97.7
		c0-53.9,43.3-97.5,96.9-97.6c54.4,0,97.2,42.8,97.3,97.5C645,216,601.7,259.5,547.7,259.5z M784,259.6
		c-53.3-0.1-97.7-47.2-96.6-98.7c1.1-53.6,43.8-96.8,97.4-96.6c54.5,0.2,96.8,43,96.6,97.9C882.4,218.8,834.2,259.7,784,259.6z"/>
	<path d="M784.8,64.3c-53.5-0.2-96.3,43.1-97.4,96.6c-1,51.5,43.3,98.6,96.6,98.7c50.2,0.1,98.4-40.8,97.4-97.4
		C881.5,107.3,839.3,64.5,784.8,64.3z M784.3,241.3c-43.3-0.1-79.1-36.1-79.1-79.5c0.1-43.8,35.8-79.6,79.4-79.5
		c44.1,0,79.1,35.3,79,79.7C863.7,206.1,828.3,241.4,784.3,241.3z"/>
	<polygon points="807.8,323.8 800.5,344.2 814.9,344.2 807.9,323.8 	"/>
	<path d="M528.4,342.8c-1.6-1.2-3.7-1.8-6.4-1.8h-13.3v15.3h13.1c1.2,0,2.3-0.1,3.4-0.4c1.1-0.2,2.1-0.6,2.9-1.2
		c0.8-0.5,1.5-1.3,2-2.2c0.5-0.9,0.7-2.1,0.7-3.6C530.8,346,530,344,528.4,342.8z"/>
	<path d="M1002.8,36.4c-324,0-642,0-966,0c-9.1,0-17,6.6-17,17c0,112.6,0,222.3,0,334.9c333.3,0,666.7,0,1000,0
		c0-112.3,0-221.6,0-333.9C1019.8,42.4,1014.2,36.4,1002.8,36.4z M541.4,356.9c-1.1,2.1-2.6,3.7-4.4,5c-1.8,1.3-4,2.3-6.3,2.9
		c-2.4,0.6-4.8,0.9-7.3,0.9h-27v-55.7h26.2c2.7,0,5.1,0.2,7.3,0.7c2.2,0.5,4.1,1.2,5.6,2.3c1.6,1.1,2.8,2.5,3.6,4.3
		c0.9,1.8,1.3,4,1.3,6.6c0,2.8-0.6,5.1-1.9,7c-1.3,1.9-3.2,3.4-5.7,4.6c3.4,1,6,2.7,7.7,5.2c1.7,2.5,2.5,5.4,2.5,8.9
		C543.1,352.4,542.5,354.8,541.4,356.9z M578.6,344.4v21.4h-12.2v-21.7l-20.4-34h13.7l13,22l12.9-22h13.6L578.6,344.4z M773.8,356.3
		c-1,2.2-2.5,4.1-4.4,5.7c-2,1.6-4.4,2.8-7.3,3.7c-2.9,0.9-6.2,1.3-10,1.3c-3.1,0-6-0.4-8.9-1.1c-2.9-0.8-5.4-1.9-7.6-3.5
		c-2.2-1.6-4-3.7-5.3-6.2c-1.3-2.5-1.9-5.5-1.9-8.9h11.9c0,1.9,0.3,3.5,1,4.8c0.7,1.3,1.6,2.4,2.7,3.2c1.1,0.8,2.4,1.4,3.9,1.8
		c1.5,0.4,3.1,0.6,4.7,0.6c1.1,0,2.3-0.1,3.5-0.3c1.2-0.2,2.4-0.5,3.5-1.1c1.1-0.5,2-1.2,2.7-2.1c0.7-0.9,1.1-2.1,1.1-3.5
		c0-1.5-0.5-2.7-1.4-3.7c-1-0.9-2.2-1.7-3.8-2.3s-3.3-1.2-5.3-1.6c-2-0.5-4-1-6-1.6c-2.1-0.5-4.1-1.2-6.1-1.9
		c-2-0.8-3.7-1.7-5.3-2.9c-1.6-1.2-2.8-2.7-3.8-4.5s-1.4-4-1.4-6.5c0-2.9,0.6-5.3,1.8-7.4c1.2-2.1,2.8-3.9,4.8-5.3
		c2-1.4,4.2-2.4,6.7-3.1c2.5-0.7,5-1,7.5-1c2.9,0,5.7,0.3,8.4,1c2.7,0.7,5.1,1.7,7.1,3.2c2.1,1.5,3.7,3.3,5,5.6
		c1.2,2.3,1.8,5,1.8,8.2h-11.9c-0.1-1.7-0.5-3-1.1-4.1c-0.6-1.1-1.4-2-2.4-2.6c-1-0.6-2.1-1.1-3.4-1.3c-1.3-0.3-2.7-0.4-4.2-0.4
		c-1,0-2,0.1-3,0.3c-1,0.2-1.9,0.6-2.7,1.1c-0.8,0.5-1.5,1.2-2,1.9c-0.5,0.8-0.8,1.8-0.8,3c0,1.1,0.2,2,0.6,2.7
		c0.4,0.7,1.2,1.3,2.5,1.9c1.2,0.6,2.9,1.1,5.1,1.7c2.2,0.6,5,1.3,8.5,2.2c1,0.2,2.5,0.6,4.3,1.1c1.8,0.5,3.7,1.4,5.5,2.6
		c1.8,1.2,3.4,2.8,4.7,4.8c1.3,2,2,4.6,2,7.7C775.3,351.8,774.8,354.1,773.8,356.3z M822.3,365.8l-4.2-12.4h-20.8l-4.4,12.4h-12.3
		l21.1-55.7h12.6l20.8,55.7H822.3z M1003.3,283.2c-224,0-447.9,0-671.9-0.1c-5.8,0-9,1.5-12.2,6.6c-24.8,39.4-60.2,63.8-106.4,69
		C150.1,365.7,101.5,341,67.4,288c-2.3-3.5-4.3-5.1-8.6-4.9l-30,0.1c0,0,0-152,0-225.4c0-9.5,3-12.4,12.6-12.4
		c318.9,0,637.9,0,956.8,0c9.6,0,12.6,2.9,12.6,12.5c0,73.3,0,146.6,0,220c0,1.5,0,3,0,5.3C1007.9,283.2,1005.6,283.2,1003.3,283.2z
		"/>
	<path d="M526.4,331c1.4-1,2.1-2.7,2.1-5.1c0-1.3-0.2-2.4-0.7-3.2c-0.5-0.8-1.1-1.5-1.9-2c-0.8-0.5-1.7-0.8-2.7-1
		c-1-0.2-2.1-0.3-3.2-0.3h-11.5v13h12.4C523.2,332.6,525,332.1,526.4,331z"/>
	<path d="M566,131.5c-12.2,0-24.3-0.1-36.5,0c-5.6,0-7.7,2.3-7.7,8c-0.1,8.7,0,17.3,0,26c0,3.9,0,7.8,0,12.2c4,0,7.3,0,11.2,0
		c0,15.8,0,31.2,0,46.5c10.2,0,19.8,0,30,0c0-15.7,0-31.1,0-46.7c3.8,0,6.9,0,10.8,0c0-13.7,0.2-26.9-0.1-40
		C573.6,133.1,570.2,131.5,566,131.5z"/>
	<path d="M548,126.3c7.3-0.1,13.2-6.1,13.2-13.6c0-7.5-5.7-13.4-13.1-13.5c-7.6-0.1-13.8,5.9-13.8,13.5
		C534.2,120.3,540.5,126.5,548,126.3z"/>
	<path d="M197,68.8C119.6,67,63.6,133.3,63.1,199.5c-0.5,71,61,132.6,130.4,132.6c64.9,0,132.3-53.4,130.8-131.3
		C326,127.7,265.5,70.3,197,68.8z M194.2,307.7C135.5,306.9,87.3,258.9,87,200.3c-0.2-55.7,48-108.9,107.2-107.2
		c59.8,0,106.3,47.4,106.7,107.7C301.3,265.3,244.8,308.4,194.2,307.7z"/>
	<path d="M160.5,177.1c7.3,0,11.5,4.3,14.8,10.6c5.8-3,11.3-5.8,17-8.8c-3.6-7.1-8.6-12.2-15.3-15.2c-24.5-10.8-52.6,0.5-56.7,29.4
		c-3.9,28,12.7,48.7,39.3,48.1c14.8-0.3,28.5-9,32.5-20.7c-4.9-2.6-9.9-5.3-15-8c-0.7,1.1-1.4,2.1-2,3c-4.2,6.9-10.5,8.9-18,7.8
		c-7.1-1.1-11.6-5.7-12.3-12.6c-0.8-7.3-0.9-15,0.4-22.2C146.5,180.8,152.6,177.1,160.5,177.1z"/>
	<path d="M547.6,64.3c-53.6,0-96.9,43.6-96.9,97.6c0,53.6,43.8,97.7,97,97.7c54,0,97.3-43.5,97.2-97.8
		C644.8,107.1,602,64.2,547.6,64.3z M547.8,241.4c-43.4-0.5-79.1-35.8-79.1-79.4c-0.1-44,35.3-79.7,79.1-79.7
		c44.2,0,78.6,35,79.2,79.5C627.7,208.5,586.9,241.8,547.8,241.4z"/>
	<path d="M800,113c-28-8.7-51.6,4.8-58.2,33.1c-0.1,0.6-0.3,1.7-0.3,1.7s-4.5,0.6-6.9,0.8c6.4,6.3,12.4,12.1,17.9,17.5
		c6.1-5.8,12.3-11.5,18.8-17.6c-2.1-0.3-3.8-0.5-6-0.8c0.4-2.2,0.8-3.8,1.5-5.5c3.3-8,9.9-10.7,17.9-11.1c9-0.5,16.4,2.2,20.2,10.7
		c6.1,13.8,6,27.9-0.6,41.6c-4.4,9.2-12.1,12.4-23.5,11c-9-1.1-12.9-5-15.6-15.5c-0.1-0.5-0.3-1.4-0.3-1.4l-24,0
		c0,0,0.1,1.6,0.2,2.2c4.8,26.2,28,40.7,54.7,34.2c23.5-5.7,38.6-26.5,37.8-52.1C832.9,137.4,820.5,119.3,800,113z"/>
	<path d="M236.1,177.1c7.3,0,11.5,4.3,14.8,10.6c5.8-3,11.3-5.8,17-8.8c-3.6-7.1-8.6-12.2-15.3-15.2c-24.5-10.8-52.6,0.5-56.7,29.4
		c-3.9,28,12.7,48.7,39.3,48.1c14.8-0.3,28.5-9,32.5-20.7c-4.9-2.6-9.9-5.3-15-8c-0.7,1.1-1.4,2.1-2,3c-4.2,6.9-10.5,8.9-18,7.8
		c-7.1-1.1-11.6-5.7-12.3-12.6c-0.8-7.3-0.9-15,0.4-22.2C222.1,180.8,228.2,177.1,236.1,177.1z"/>
</g>
</svg>
